<svg width="107" height="29" viewBox="0 0 107 29" fill="none" xmlns="http://www.w3.org/2000/svg">
<rect x="0.625" y="0.352539" width="106" height="28" rx="14" fill="#F5F1EF"/>
<path d="M20.2395 19.5782C17.2066 19.5782 15.1893 17.2788 15.1893 14.133C15.1893 11.0154 17.136 8.65955 20.2536 8.65955C21.4527 8.65955 22.4402 8.9699 23.1596 9.52007C24.0061 10.1831 24.5139 11.1282 24.6409 12.2286H22.6941C22.5107 11.1 21.622 10.31 20.2395 10.31C18.2364 10.31 17.1783 11.9464 17.1783 14.133C17.1783 16.3619 18.3774 17.9277 20.2536 17.9277C21.8195 17.9277 22.68 16.8838 22.7929 15.6142H24.7537C24.7114 16.6581 24.2177 17.7161 23.4841 18.4215C22.7223 19.1833 21.6502 19.5782 20.2395 19.5782ZM29.5901 19.5782C27.2483 19.5782 25.7389 17.829 25.7389 15.6001C25.7389 13.3571 27.2483 11.622 29.5901 11.622C31.9318 11.622 33.413 13.3571 33.413 15.6001C33.413 17.829 31.9318 19.5782 29.5901 19.5782ZM29.5759 18.224C30.8879 18.224 31.5932 17.1095 31.5932 15.6001C31.5932 14.0766 30.8879 12.948 29.5759 12.948C28.2499 12.948 27.5587 14.0766 27.5587 15.6001C27.5587 17.1095 28.2499 18.224 29.5759 18.224ZM34.6748 19.3525V11.8195H36.4099V12.9621H36.4523C36.9319 12.1157 37.6796 11.622 38.7094 11.622C39.6545 11.622 40.374 12.1016 40.7125 13.0327H40.7407C41.3332 12.0593 42.1796 11.622 43.1107 11.622C44.6483 11.622 45.5512 12.6236 45.5512 14.2459V19.3525H43.7596V14.4857C43.7596 13.6252 43.2659 13.1032 42.5323 13.1032C41.6577 13.1032 41.0088 13.8368 41.0088 14.8948V19.3525H39.2172V14.4857C39.2172 13.6252 38.7799 13.1032 38.0322 13.1032C37.1999 13.1032 36.4664 13.8368 36.4664 14.8948V19.3525H34.6748ZM47.1285 19.3525V11.8195H48.8636V12.9621H48.906C49.3856 12.1157 50.1333 11.622 51.1631 11.622C52.1082 11.622 52.8277 12.1016 53.1662 13.0327H53.1944C53.7869 12.0593 54.6333 11.622 55.5644 11.622C57.102 11.622 58.0049 12.6236 58.0049 14.2459V19.3525H56.2133V14.4857C56.2133 13.6252 55.7196 13.1032 54.986 13.1032C54.1114 13.1032 53.4625 13.8368 53.4625 14.8948V19.3525H51.6709V14.4857C51.6709 13.6252 51.2336 13.1032 50.4859 13.1032C49.6536 13.1032 48.9201 13.8368 48.9201 14.8948V19.3525H47.1285ZM66.1701 19.3525H64.435V18.2804H64.4067C63.8566 19.0986 63.1936 19.55 62.1355 19.55C60.485 19.55 59.5258 18.5202 59.5258 16.8979V11.8195H61.3173V16.644C61.3173 17.5328 61.8252 18.0547 62.728 18.0547C63.7437 18.0547 64.3926 17.2788 64.3926 16.2349V11.8195H66.1701V19.3525ZM69.5559 11.8195V12.9198H69.5982C70.0919 12.0875 70.8819 11.622 71.9399 11.622C73.5622 11.622 74.5356 12.6236 74.5356 14.2459V19.3525H72.744V14.5421C72.744 13.6534 72.2221 13.1032 71.3051 13.1032C70.3035 13.1032 69.5982 13.865 69.5982 14.9371V19.3525H67.8066V11.8195H69.5559ZM76.0855 10.5922V8.85704H77.9193V10.5922H76.0855ZM76.1137 19.3525V11.8195H77.9052V19.3525H76.1137ZM79.0788 13.0468V11.8195H80.2355V9.42132H81.9989V11.8195H83.5083V13.0468H81.9989V17.2647C81.9989 17.8149 82.2951 17.9701 82.803 17.9701C82.9864 17.9701 83.2403 17.9419 83.3813 17.9136H83.466V19.3102C83.1697 19.3666 82.7606 19.4231 82.281 19.4231C81.0678 19.4231 80.2355 18.9858 80.2355 17.6597V13.0468H79.0788ZM86.2007 21.92C85.975 21.92 85.0158 21.8777 84.8888 21.8353V20.3823H84.9875C85.0581 20.4247 85.5518 20.4529 85.7352 20.4529C86.3418 20.4529 86.6804 20.2272 86.8355 19.6206C86.8355 19.4795 86.9061 18.7742 86.7509 18.3651L84.1552 11.8195H86.0597L87.3011 15.318C87.6255 16.249 87.9359 17.6597 87.9359 17.6597H87.9641C87.9641 17.6597 88.3026 16.2349 88.613 15.318L89.8121 11.8195H91.6178L88.6976 19.7757C88.0769 21.4404 87.428 21.92 86.2007 21.92Z" fill="#183C34"/>
</svg>
