<svg width="126" height="29" viewBox="0 0 126 29" fill="none" xmlns="http://www.w3.org/2000/svg">
<rect x="0.625" y="0.352539" width="125" height="28" rx="14" fill="#F5F1EF"/>
<path d="M20.2395 19.5782C17.2066 19.5782 15.1893 17.2788 15.1893 14.133C15.1893 11.0154 17.136 8.65955 20.2536 8.65955C21.4527 8.65955 22.4402 8.9699 23.1596 9.52007C24.0061 10.1831 24.5139 11.1282 24.6409 12.2286H22.6941C22.5107 11.1 21.622 10.31 20.2395 10.31C18.2364 10.31 17.1783 11.9464 17.1783 14.133C17.1783 16.3619 18.3774 17.9277 20.2536 17.9277C21.8195 17.9277 22.68 16.8838 22.7929 15.6142H24.7537C24.7114 16.6581 24.2177 17.7161 23.4841 18.4215C22.7223 19.1833 21.6502 19.5782 20.2395 19.5782ZM29.5901 19.5782C27.2483 19.5782 25.7389 17.829 25.7389 15.6001C25.7389 13.3571 27.2483 11.622 29.5901 11.622C31.9318 11.622 33.413 13.3571 33.413 15.6001C33.413 17.829 31.9318 19.5782 29.5901 19.5782ZM29.5759 18.224C30.8879 18.224 31.5932 17.1095 31.5932 15.6001C31.5932 14.0766 30.8879 12.948 29.5759 12.948C28.2499 12.948 27.5587 14.0766 27.5587 15.6001C27.5587 17.1095 28.2499 18.224 29.5759 18.224ZM37.6937 19.5924C35.5494 19.5924 34.308 18.5626 34.1952 17.039H35.9162C36.0573 17.9419 36.7485 18.3227 37.7078 18.3227C38.6953 18.3227 39.1608 17.8995 39.1608 17.2929C39.1608 16.5453 38.399 16.4042 37.214 16.1785C35.8033 15.8964 34.4632 15.5719 34.4632 13.865C34.4632 12.4402 35.6764 11.622 37.4397 11.622C39.4429 11.622 40.4445 12.5248 40.6279 13.8368H38.921C38.794 13.1878 38.3144 12.8352 37.4256 12.8352C36.5933 12.8352 36.156 13.2161 36.156 13.738C36.156 14.401 36.9319 14.528 38.0745 14.7396C39.4993 15.0076 40.91 15.3462 40.91 17.1801C40.91 18.7601 39.5558 19.5924 37.6937 19.5924ZM41.511 13.0468V11.8195H42.6678V9.42132H44.4311V11.8195H45.9406V13.0468H44.4311V17.2647C44.4311 17.8149 44.7274 17.9701 45.2352 17.9701C45.4186 17.9701 45.6725 17.9419 45.8136 17.9136H45.8982V19.3102C45.602 19.3666 45.1929 19.4231 44.7133 19.4231C43.5001 19.4231 42.6678 18.9858 42.6678 17.6597V13.0468H41.511ZM46.931 16.2772V14.6973H50.8809V16.2772H46.931ZM52.4914 19.3525V8.85704H60.1655V10.5217H54.4382V13.1173H59.5025V14.6832H54.4382V17.6456H60.2925V19.3525H52.4914ZM66.6592 19.3525V13.0609H64.0212V19.3525H62.2297V13.0609H61.0729V11.8195H62.2297V11.0577C62.2297 9.95738 62.5259 9.40721 63.3723 9.08275C63.8237 8.91347 64.7407 8.85704 65.5589 8.92758V10.2818C64.388 10.2254 64.0212 10.3524 64.0212 11.1706V11.8195H66.6592V10.9872C66.6592 9.88684 67.0542 9.28025 67.8724 8.99811C68.352 8.82883 69.1843 8.7724 70.0166 8.87115V10.2113C68.8317 10.1549 68.4508 10.2818 68.4508 11.1V11.8195H70.0025V13.0609H68.4508V19.3525H66.6592ZM74.5691 19.5782C72.1709 19.5782 70.732 17.829 70.732 15.6001C70.732 13.3571 72.2414 11.622 74.4703 11.622C75.5707 11.622 76.4312 12.0029 77.066 12.68C77.7995 13.4559 78.1522 14.6409 78.1381 16.0374H72.5095C72.6364 17.3353 73.3277 18.2099 74.5832 18.2099C75.4437 18.2099 76.008 17.8431 76.2478 17.2224H77.997C77.6303 18.5767 76.4171 19.5782 74.5691 19.5782ZM74.4703 12.9198C73.2995 12.9198 72.6929 13.7239 72.5377 14.9089H76.2901C76.2196 13.6675 75.5566 12.9198 74.4703 12.9198ZM82.8345 19.5782C80.5068 19.5782 79.0115 17.829 79.0115 15.6001C79.0115 13.3571 80.4927 11.622 82.8063 11.622C84.7248 11.622 85.938 12.7082 86.206 14.3305H84.4568C84.2875 13.5123 83.7232 12.9903 82.8204 12.9903C81.5084 12.9903 80.8313 14.0766 80.8313 15.6001C80.8313 17.0813 81.5084 18.1817 82.8204 18.1817C83.8079 18.1817 84.4003 17.6033 84.4991 16.6158H86.2483C86.1355 18.3651 84.8518 19.5782 82.8345 19.5782ZM86.9725 13.0468V11.8195H88.1293V9.42132H89.8926V11.8195H91.4021V13.0468H89.8926V17.2647C89.8926 17.8149 90.1889 17.9701 90.6967 17.9701C90.8801 17.9701 91.134 17.9419 91.2751 17.9136H91.3598V19.3102C91.0635 19.3666 90.6544 19.4231 90.1748 19.4231C88.9616 19.4231 88.1293 18.9858 88.1293 17.6597V13.0468H86.9725ZM92.6307 10.5922V8.85704H94.4646V10.5922H92.6307ZM92.6589 19.3525V11.8195H94.4505V19.3525H92.6589ZM97.9375 19.3525L95.3277 11.8195H97.204L98.3043 15.3321C98.6287 16.3478 98.9391 17.8572 98.9391 17.8572H98.9814C98.9814 17.8572 99.2777 16.3478 99.6021 15.3321L100.745 11.8195H102.565L99.8984 19.3525H97.9375ZM106.709 19.5782C104.311 19.5782 102.872 17.829 102.872 15.6001C102.872 13.3571 104.381 11.622 106.61 11.622C107.711 11.622 108.571 12.0029 109.206 12.68C109.939 13.4559 110.292 14.6409 110.278 16.0374H104.649C104.776 17.3353 105.468 18.2099 106.723 18.2099C107.584 18.2099 108.148 17.8431 108.388 17.2224H110.137C109.77 18.5767 108.557 19.5782 106.709 19.5782ZM106.61 12.9198C105.439 12.9198 104.833 13.7239 104.678 14.9089H108.43C108.36 13.6675 107.696 12.9198 106.61 12.9198Z" fill="#183C34"/>
</svg>
