<svg width="170" height="29" viewBox="0 0 170 29" fill="none" xmlns="http://www.w3.org/2000/svg">
<rect x="0.625" y="0.352539" width="169" height="28" rx="14" fill="#F5F1EF"/>
<path d="M35.6125 19.3525V8.85704H43.2866V10.5217H37.5592V13.1173H42.6236V14.6832H37.5592V17.6456H43.4136V19.3525H35.6125ZM46.6154 11.8195V12.9198H46.6577C47.1514 12.0875 47.9414 11.622 48.9994 11.622C50.6217 11.622 51.5951 12.6236 51.5951 14.2459V19.3525H49.8035V14.5421C49.8035 13.6534 49.2816 13.1032 48.3646 13.1032C47.363 13.1032 46.6577 13.865 46.6577 14.9371V19.3525H44.8661V11.8195H46.6154ZM54.9648 11.6784C54.9648 11.89 54.9507 12.4684 54.9365 12.9057H54.9789C55.4867 12.1016 56.2485 11.622 57.3065 11.622C58.9288 11.622 59.9022 12.6236 59.9022 14.2459V19.3525H58.1106V14.5421C58.1106 13.6534 57.5886 13.1032 56.6717 13.1032C55.6701 13.1032 54.9648 13.865 54.9648 14.9371V19.3525H53.1732V8.85704H54.9648V11.6784ZM66.3612 19.3525C66.2343 19.1833 66.1355 18.887 66.1073 18.3792H66.0791C65.5853 19.0422 64.9082 19.5359 63.7091 19.5359C62.242 19.5359 61.1417 18.7742 61.1417 17.307C61.1417 15.6001 62.4395 15.191 64.2311 14.9794C65.4725 14.8242 66.0932 14.6267 66.0932 13.9496C66.0932 13.3007 65.6418 12.8634 64.7389 12.8634C63.7373 12.8634 63.2436 13.3289 63.2013 14.0766H61.5085C61.5649 12.7929 62.5806 11.622 64.7248 11.622C65.5853 11.622 66.2484 11.7489 66.7421 12.0593C67.4475 12.4825 67.8142 13.202 67.8142 14.2035V18.1676C67.8142 18.7883 67.9271 19.1127 68.0964 19.2256V19.3525H66.3612ZM64.2311 18.3086C65.4584 18.3086 66.1355 17.4622 66.1355 16.6158V15.5014C65.7828 15.7271 65.2186 15.8823 64.6684 15.9951C63.5681 16.2067 62.9333 16.4324 62.9333 17.2647C62.9333 18.0688 63.5399 18.3086 64.2311 18.3086ZM71.2197 11.8195V12.9198H71.262C71.7558 12.0875 72.5458 11.622 73.6038 11.622C75.2261 11.622 76.1994 12.6236 76.1994 14.2459V19.3525H74.4079V14.5421C74.4079 13.6534 73.8859 13.1032 72.969 13.1032C71.9674 13.1032 71.262 13.865 71.262 14.9371V19.3525H69.4705V11.8195H71.2197ZM81.2196 19.5782C78.892 19.5782 77.3966 17.829 77.3966 15.6001C77.3966 13.3571 78.8779 11.622 81.1914 11.622C83.1099 11.622 84.3231 12.7082 84.5911 14.3305H82.8419C82.6726 13.5123 82.1083 12.9903 81.2055 12.9903C79.8935 12.9903 79.2164 14.0766 79.2164 15.6001C79.2164 17.0813 79.8935 18.1817 81.2055 18.1817C82.193 18.1817 82.7855 17.6033 82.8842 16.6158H84.6335C84.5206 18.3651 83.2369 19.5782 81.2196 19.5782ZM89.2652 19.5782C86.8671 19.5782 85.4282 17.829 85.4282 15.6001C85.4282 13.3571 86.9376 11.622 89.1665 11.622C90.2668 11.622 91.1273 12.0029 91.7621 12.68C92.4957 13.4559 92.8484 14.6409 92.8343 16.0374H87.2056C87.3326 17.3353 88.0238 18.2099 89.2793 18.2099C90.1399 18.2099 90.7041 17.8431 90.944 17.2224H92.6932C92.3264 18.5767 91.1132 19.5782 89.2652 19.5782ZM89.1665 12.9198C87.9956 12.9198 87.389 13.7239 87.2338 14.9089H90.9863C90.9157 13.6675 90.2527 12.9198 89.1665 12.9198ZM94.0886 19.3525V11.8195H95.8237V12.9621H95.866C96.3457 12.1157 97.0933 11.622 98.1231 11.622C99.0683 11.622 99.7877 12.1016 100.126 13.0327H100.155C100.747 12.0593 101.593 11.622 102.524 11.622C104.062 11.622 104.965 12.6236 104.965 14.2459V19.3525H103.173V14.4857C103.173 13.6252 102.68 13.1032 101.946 13.1032C101.071 13.1032 100.423 13.8368 100.423 14.8948V19.3525H98.631V14.4857C98.631 13.6252 98.1937 13.1032 97.446 13.1032C96.6137 13.1032 95.8801 13.8368 95.8801 14.8948V19.3525H94.0886ZM109.998 19.5782C107.6 19.5782 106.161 17.829 106.161 15.6001C106.161 13.3571 107.671 11.622 109.9 11.622C111 11.622 111.861 12.0029 112.495 12.68C113.229 13.4559 113.582 14.6409 113.567 16.0374H107.939C108.066 17.3353 108.757 18.2099 110.013 18.2099C110.873 18.2099 111.437 17.8431 111.677 17.2224H113.426C113.06 18.5767 111.846 19.5782 109.998 19.5782ZM109.9 12.9198C108.729 12.9198 108.122 13.7239 107.967 14.9089H111.719C111.649 13.6675 110.986 12.9198 109.9 12.9198ZM116.571 11.8195V12.9198H116.613C117.107 12.0875 117.897 11.622 118.955 11.622C120.577 11.622 121.551 12.6236 121.551 14.2459V19.3525H119.759V14.5421C119.759 13.6534 119.237 13.1032 118.32 13.1032C117.319 13.1032 116.613 13.865 116.613 14.9371V19.3525H114.822V11.8195H116.571ZM122.54 13.0468V11.8195H123.696V9.42132H125.46V11.8195H126.969V13.0468H125.46V17.2647C125.46 17.8149 125.756 17.9701 126.264 17.9701C126.447 17.9701 126.701 17.9419 126.842 17.9136H126.927V19.3102C126.631 19.3666 126.222 19.4231 125.742 19.4231C124.529 19.4231 123.696 18.9858 123.696 17.6597V13.0468H122.54ZM131.314 19.5924C129.17 19.5924 127.928 18.5626 127.815 17.039H129.536C129.677 17.9419 130.369 18.3227 131.328 18.3227C132.315 18.3227 132.781 17.8995 132.781 17.2929C132.781 16.5453 132.019 16.4042 130.834 16.1785C129.423 15.8964 128.083 15.5719 128.083 13.865C128.083 12.4402 129.296 11.622 131.06 11.622C133.063 11.622 134.065 12.5248 134.248 13.8368H132.541C132.414 13.1878 131.934 12.8352 131.046 12.8352C130.213 12.8352 129.776 13.2161 129.776 13.738C129.776 14.401 130.552 14.528 131.695 14.7396C133.119 15.0076 134.53 15.3462 134.53 17.1801C134.53 18.7601 133.176 19.5924 131.314 19.5924Z" fill="#183C34"/>
</svg>
