<svg width="114" height="29" viewBox="0 0 114 29" fill="none" xmlns="http://www.w3.org/2000/svg">
<rect x="0.625" y="0.352539" width="113" height="28" rx="14" fill="#F5F1EF"/>
<path d="M16.597 19.3525L16.3289 17.9136H16.2725C15.5954 19.0563 14.4668 19.5924 13.1549 19.5924C11.6737 19.5924 10.4464 19.0281 9.58585 18.097C8.68301 17.1237 8.20338 15.7553 8.20338 14.1471C8.20338 12.4543 8.76765 10.9731 9.79745 9.98559C10.6439 9.15329 11.8006 8.65955 13.296 8.65955C15.8634 8.65955 17.3587 10.0279 17.7396 12.0029H15.7647C15.4825 11.0295 14.7207 10.2959 13.3242 10.2959C11.194 10.2959 10.1924 11.9747 10.1924 14.1471C10.1924 16.3901 11.4338 17.956 13.3242 17.956C15.0875 17.956 16.0186 16.7569 16.0327 15.4167V15.2898H13.4934V13.7662H17.9089V19.3525H16.597ZM21.2957 11.8195V13.1737H21.3381C21.8177 12.2004 22.5372 11.7066 23.4964 11.7066C23.708 11.7066 23.8491 11.7207 23.976 11.7772V13.3853H23.9196C23.7503 13.343 23.6093 13.3289 23.4259 13.3289C22.2409 13.3148 21.3522 14.1189 21.3522 15.5719V19.3525H19.5606V11.8195H21.2957ZM28.4033 19.5782C26.0051 19.5782 24.5662 17.829 24.5662 15.6001C24.5662 13.3571 26.0757 11.622 28.3045 11.622C29.4049 11.622 30.2654 12.0029 30.9002 12.68C31.6338 13.4559 31.9864 14.6409 31.9723 16.0374H26.3437C26.4706 17.3353 27.1619 18.2099 28.4174 18.2099C29.2779 18.2099 29.8422 17.8431 30.082 17.2224H31.8312C31.4645 18.5767 30.2513 19.5782 28.4033 19.5782ZM28.3045 12.9198C27.1337 12.9198 26.5271 13.7239 26.3719 14.9089H30.1243C30.0538 13.6675 29.3908 12.9198 28.3045 12.9198ZM36.6828 19.5782C34.2846 19.5782 32.8457 17.829 32.8457 15.6001C32.8457 13.3571 34.3552 11.622 36.584 11.622C37.6844 11.622 38.5449 12.0029 39.1797 12.68C39.9133 13.4559 40.2659 14.6409 40.2518 16.0374H34.6232C34.7502 17.3353 35.4414 18.2099 36.6969 18.2099C37.5574 18.2099 38.1217 17.8431 38.3615 17.2224H40.1108C39.744 18.5767 38.5308 19.5782 36.6828 19.5782ZM36.584 12.9198C35.4132 12.9198 34.8066 13.7239 34.6514 14.9089H38.4038C38.3333 13.6675 37.6703 12.9198 36.584 12.9198ZM43.2554 11.8195V12.9198H43.2977C43.7914 12.0875 44.5814 11.622 45.6394 11.622C47.2617 11.622 48.2351 12.6236 48.2351 14.2459V19.3525H46.4435V14.5421C46.4435 13.6534 45.9216 13.1032 45.0046 13.1032C44.003 13.1032 43.2977 13.865 43.2977 14.9371V19.3525H41.5061V11.8195H43.2554ZM53.5505 19.3525V8.85704H58.3045C59.3907 8.85704 60.223 9.12507 60.7732 9.66113C61.2952 10.1408 61.5773 10.7756 61.5773 11.5797C61.5773 12.6659 60.9848 13.3853 59.8563 13.7239V13.7662C61.1682 14.0766 62.0005 14.9794 62.0005 16.3055C62.0005 17.2365 61.6619 17.9701 61.0695 18.4779C60.4629 19.0422 59.5882 19.3525 58.4597 19.3525H53.5505ZM55.4831 13.1878H58.0224C59.0381 13.1878 59.6729 12.6941 59.6729 11.7913C59.6729 10.9308 59.0804 10.4229 58.1211 10.4229H55.4831V13.1878ZM55.4831 17.7585H58.2904C58.8829 17.7585 59.3343 17.5892 59.6165 17.307C59.8845 17.0531 60.0397 16.6863 60.0397 16.2349C60.0397 15.1628 59.2779 14.6409 58.234 14.6409H55.4831V17.7585ZM69.8604 19.3525H68.1253V18.2804H68.0971C67.5469 19.0986 66.8839 19.55 65.8259 19.55C64.1754 19.55 63.2161 18.5202 63.2161 16.8979V11.8195H65.0077V16.644C65.0077 17.5328 65.5155 18.0547 66.4184 18.0547C67.4341 18.0547 68.083 17.2788 68.083 16.2349V11.8195H69.8604V19.3525ZM71.4687 10.5922V8.85704H73.3026V10.5922H71.4687ZM71.497 19.3525V11.8195H73.2885V19.3525H71.497ZM74.9417 19.3525V8.85704H76.7473V19.3525H74.9417ZM81.2907 19.5924C79.3017 19.5924 78.018 18.0547 78.018 15.6001C78.018 13.202 79.3722 11.622 81.2907 11.622C82.3347 11.622 83.1105 12.1157 83.6043 12.9057H83.6325C83.6043 12.4966 83.5761 11.9041 83.5761 11.3398V8.85704H85.3676V19.3525H83.6325V18.2522H83.6043C83.1387 19.1268 82.3205 19.5924 81.2907 19.5924ZM81.6575 18.1252C82.9836 18.1252 83.6466 17.0813 83.6466 15.6001C83.6466 14.0907 82.9836 13.0186 81.6575 13.0186C80.4443 13.0186 79.8377 14.1048 79.8377 15.586C79.8377 17.0954 80.4443 18.1252 81.6575 18.1252ZM86.9808 10.5922V8.85704H88.8147V10.5922H86.9808ZM87.009 19.3525V11.8195H88.8005V19.3525H87.009ZM92.1747 11.8195V12.9198H92.2171C92.7108 12.0875 93.5008 11.622 94.5588 11.622C96.1811 11.622 97.1544 12.6236 97.1544 14.2459V19.3525H95.3629V14.5421C95.3629 13.6534 94.8409 13.1032 93.924 13.1032C92.9224 13.1032 92.2171 13.865 92.2171 14.9371V19.3525H90.4255V11.8195H92.1747ZM102.076 21.9764C100.059 21.9764 98.8172 21.1582 98.6338 19.7334H100.355C100.482 20.3541 101.06 20.6645 102.048 20.6645C103.247 20.6645 103.867 20.1002 103.867 19.014V18.8306C103.867 18.4215 103.882 18.0406 103.896 17.7867H103.853C103.388 18.5343 102.725 18.9434 101.723 18.9434C99.8893 18.9434 98.4363 17.561 98.4363 15.318C98.4363 13.0609 99.8188 11.622 101.624 11.622C102.682 11.622 103.402 11.9888 103.853 12.7929H103.882V11.8195H105.617V18.8588C105.617 19.9168 105.264 20.6927 104.672 21.2146C104.051 21.7366 103.134 21.9764 102.076 21.9764ZM102.048 17.561C103.416 17.561 103.938 16.5735 103.938 15.2616C103.938 13.9214 103.317 13.0186 102.034 13.0186C100.863 13.0186 100.214 13.9073 100.214 15.2898C100.214 16.6722 100.877 17.561 102.048 17.561Z" fill="#183C34"/>
</svg>
