<svg width="1830" height="279" viewBox="0 0 1830 279" fill="none" xmlns="http://www.w3.org/2000/svg">
<mask id="mask0_2054_14589" style="mask-type:luminance" maskUnits="userSpaceOnUse" x="-37" y="0" width="69" height="7">
<path d="M-36.5 0H31.8985V6.3869H-36.5V0Z" fill="white"/>
</mask>
<g mask="url(#mask0_2054_14589)">
<path d="M28.9603 0.015625L-36.3848 4.82767V6.3721L30.1944 1.47255L28.9603 0.015625Z" fill="url(#paint0_linear_2054_14589)" fill-opacity="0.5"/>
</g>
<mask id="mask1_2054_14589" style="mask-type:luminance" maskUnits="userSpaceOnUse" x="-37" y="0" width="131" height="13">
<path d="M-36.5 0H93.7829V12.2298H-36.5V0Z" fill="white"/>
</mask>
<g mask="url(#mask1_2054_14589)">
<path d="M91.5444 0.015625L-36.3848 10.1647V11.7091L92.7785 1.47255L91.5444 0.015625Z" fill="url(#paint1_linear_2054_14589)" fill-opacity="0.5"/>
</g>
<mask id="mask2_2054_14589" style="mask-type:luminance" maskUnits="userSpaceOnUse" x="-37" y="0" width="193" height="19">
<path d="M-36.5 0H155.667V18.0728H-36.5V0Z" fill="white"/>
</mask>
<g mask="url(#mask2_2054_14589)">
<path d="M154.078 0.0341797L-36.3848 16.3761V17.9396L155.426 1.47209L154.078 0.0341797Z" fill="url(#paint2_linear_2054_14589)" fill-opacity="0.5"/>
</g>
<mask id="mask3_2054_14589" style="mask-type:luminance" maskUnits="userSpaceOnUse" x="-37" y="0" width="258" height="26">
<path d="M-36.5 0H220.809V25.8633H-36.5V0Z" fill="white"/>
</mask>
<g mask="url(#mask3_2054_14589)">
<path d="M216.611 0.0341797L-36.3848 23.714V25.2927L218.074 1.45687L216.611 0.0341797Z" fill="url(#paint3_linear_2054_14589)" fill-opacity="0.5"/>
</g>
<mask id="mask4_2054_14589" style="mask-type:luminance" maskUnits="userSpaceOnUse" x="-37" y="0" width="320" height="35">
<path d="M-36.5 0H282.693V34.6277H-36.5V0Z" fill="white"/>
</mask>
<g mask="url(#mask4_2054_14589)">
<path d="M279.131 0.0341797L-36.3848 32.5279V34.1256L280.722 1.45687L279.131 0.0341797Z" fill="url(#paint4_linear_2054_14589)" fill-opacity="0.5"/>
</g>
<mask id="mask5_2054_14589" style="mask-type:luminance" maskUnits="userSpaceOnUse" x="-37" y="0" width="382" height="46">
<path d="M-36.5 0H344.578V45.3398H-36.5V0Z" fill="white"/>
</mask>
<g mask="url(#mask5_2054_14589)">
<path d="M341.601 0.0488281L-36.3848 43.304V44.9017L343.42 1.43729L341.601 0.0488281Z" fill="url(#paint5_linear_2054_14589)" fill-opacity="0.5"/>
</g>
<mask id="mask6_2054_14589" style="mask-type:luminance" maskUnits="userSpaceOnUse" x="-37" y="0" width="444" height="59">
<path d="M-36.5 0H406.462V58.9733H-36.5V0Z" fill="white"/>
</mask>
<g mask="url(#mask6_2054_14589)">
<path d="M404.134 0.0488281L-36.3848 56.7663V58.4021L406.068 1.43729L404.134 0.0488281Z" fill="url(#paint6_linear_2054_14589)" fill-opacity="0.5"/>
</g>
<mask id="mask7_2054_14589" style="mask-type:luminance" maskUnits="userSpaceOnUse" x="-37" y="0" width="509" height="77">
<path d="M-36.5 0H471.603V76.5021H-36.5V0Z" fill="white"/>
</mask>
<g mask="url(#mask7_2054_14589)">
<path d="M466.604 0.0683594L-36.3848 74.0598V75.726L468.767 1.41878L466.604 0.0683594Z" fill="url(#paint7_linear_2054_14589)" fill-opacity="0.5"/>
</g>
<mask id="mask8_2054_14589" style="mask-type:luminance" maskUnits="userSpaceOnUse" x="-37" y="0" width="571" height="99">
<path d="M-36.5 0H533.488V98.9H-36.5V0Z" fill="white"/>
</mask>
<g mask="url(#mask8_2054_14589)">
<path d="M529.01 0.102539L-36.3848 97.1234V98.8466L531.542 1.4035L529.01 0.102539Z" fill="url(#paint8_linear_2054_14589)" fill-opacity="0.5"/>
</g>
<mask id="mask9_2054_14589" style="mask-type:luminance" maskUnits="userSpaceOnUse" x="-37" y="0" width="633" height="133">
<path d="M-36.5 0H595.372V132.01H-36.5V0Z" fill="white"/>
</mask>
<g mask="url(#mask9_2054_14589)">
<path d="M591.416 0.12207L-36.3848 129.389V131.215L594.304 1.36978L591.416 0.12207Z" fill="url(#paint9_linear_2054_14589)" fill-opacity="0.5"/>
</g>
<mask id="mask10_2054_14589" style="mask-type:luminance" maskUnits="userSpaceOnUse" x="-37" y="0" width="695" height="181">
<path d="M-36.5 0H657.257V180.701H-36.5V0Z" fill="white"/>
</mask>
<g mask="url(#mask10_2054_14589)">
<path d="M653.835 0.174805L-36.3848 177.768V179.735L657.066 1.316L653.835 0.174805Z" fill="url(#paint10_linear_2054_14589)" fill-opacity="0.5"/>
</g>
<mask id="mask11_2054_14589" style="mask-type:luminance" maskUnits="userSpaceOnUse" x="-37" y="0" width="760" height="262">
<path d="M-36.5 0H722.398V261.528H-36.5V0Z" fill="white"/>
</mask>
<g mask="url(#mask11_2054_14589)">
<path d="M716.126 0.263672L-36.3848 258.307V260.59L719.943 1.2451L716.126 0.263672Z" fill="url(#paint11_linear_2054_14589)" fill-opacity="0.5"/>
</g>
<mask id="mask12_2054_14589" style="mask-type:luminance" maskUnits="userSpaceOnUse" x="233" y="0" width="552" height="279">
<path d="M233.834 0H784.279V279H233.834V0Z" fill="white"/>
</mask>
<g mask="url(#mask12_2054_14589)">
<path d="M778.481 0.368164L236.217 279.056H241.968L782.769 1.12135L778.481 0.368164Z" fill="url(#paint12_linear_2054_14589)" fill-opacity="0.5"/>
</g>
<mask id="mask13_2054_14589" style="mask-type:luminance" maskUnits="userSpaceOnUse" x="566" y="0" width="281" height="280">
<path d="M566.055 0.544922H846.163V279.001H566.055V0.544922Z" fill="white"/>
</mask>
<g mask="url(#mask13_2054_14589)">
<path d="M840.822 0.544922L569.111 279.058H574.34L845.581 0.948145L840.822 0.544922Z" fill="url(#paint13_linear_2054_14589)" fill-opacity="0.5"/>
</g>
<mask id="mask14_2054_14589" style="mask-type:luminance" maskUnits="userSpaceOnUse" x="901" y="0" width="11" height="280">
<path d="M901.537 0.544922H911.308V279.001H901.537V0.544922Z" fill="white"/>
</mask>
<g mask="url(#mask14_2054_14589)">
<path d="M903.298 0.753906L901.898 279.058H906.886L908.298 0.753906H903.298Z" fill="url(#paint14_linear_2054_14589)" fill-opacity="0.5"/>
</g>
<path d="M-36.5 9.02238H905.192V10.4104H-36.5V9.02238Z" fill="url(#paint15_linear_2054_14589)" fill-opacity="0.5"/>
<path d="M-36.5 5.55176H905.192V7.63385H-36.5V5.55176Z" fill="url(#paint16_linear_2054_14589)" fill-opacity="0.5"/>
<path d="M-36.5 2.77637H905.192V4.16443H-36.5V2.77637Z" fill="url(#paint17_linear_2054_14589)" fill-opacity="0.5"/>
<mask id="mask15_2054_14589" style="mask-type:luminance" maskUnits="userSpaceOnUse" x="-37" y="0" width="946" height="2">
<path d="M-36.5 0H908.051V1.51779H-36.5V0Z" fill="white"/>
</mask>
<g mask="url(#mask15_2054_14589)">
<path d="M-36.3848 0H905.826V1.49116H-36.3848V0Z" fill="url(#paint18_linear_2054_14589)" fill-opacity="0.5"/>
</g>
<path d="M-36.5 12.4922H905.192V13.8802H-36.5V12.4922Z" fill="url(#paint19_linear_2054_14589)" fill-opacity="0.5"/>
<path d="M-36.5 15.9627H905.192V18.0448H-36.5V15.9627Z" fill="url(#paint20_linear_2054_14589)" fill-opacity="0.5"/>
<path d="M-36.5 20.1269H905.192V22.209H-36.5V20.1269Z" fill="url(#paint21_linear_2054_14589)" fill-opacity="0.5"/>
<path d="M-36.5 25.6787H905.192V27.0668H-36.5V25.6787Z" fill="url(#paint22_linear_2054_14589)" fill-opacity="0.5"/>
<path d="M-36.5 30.5373H905.192V31.9254H-36.5V30.5373Z" fill="url(#paint23_linear_2054_14589)" fill-opacity="0.5"/>
<path d="M-36.5 37.4776H905.192V38.8657H-36.5V37.4776Z" fill="url(#paint24_linear_2054_14589)" fill-opacity="0.5"/>
<path d="M-36.5 43.7236H905.192V45.1117H-36.5V43.7236Z" fill="url(#paint25_linear_2054_14589)" fill-opacity="0.5"/>
<path d="M-36.5 52.0518H905.192V53.4398H-36.5V52.0518Z" fill="url(#paint26_linear_2054_14589)" fill-opacity="0.5"/>
<path d="M-36.5 61.0742H905.192V63.1563H-36.5V61.0742Z" fill="url(#paint27_linear_2054_14589)" fill-opacity="0.5"/>
<path d="M-36.5 72.1787H905.192V73.5668H-36.5V72.1787Z" fill="url(#paint28_linear_2054_14589)" fill-opacity="0.5"/>
<path d="M-36.5 84.6716H905.192V86.0597H-36.5V84.6716Z" fill="url(#paint29_linear_2054_14589)" fill-opacity="0.5"/>
<path d="M-36.5 99.9403H905.192V101.328H-36.5V99.9403Z" fill="url(#paint30_linear_2054_14589)" fill-opacity="0.5"/>
<path d="M-36.5 119.373H905.192V120.761H-36.5V119.373Z" fill="url(#paint31_linear_2054_14589)" fill-opacity="0.5"/>
<path d="M-36.5 142.97H905.192V144.358H-36.5V142.97Z" fill="url(#paint32_linear_2054_14589)" fill-opacity="0.5"/>
<path d="M-36.5 174.896H904.148V176.284H-36.5V174.896Z" fill="url(#paint33_linear_2054_14589)" fill-opacity="0.5"/>
<path d="M-36.5 217.231H904.148V218.619H-36.5V217.231Z" fill="url(#paint34_linear_2054_14589)" fill-opacity="0.5"/>
<mask id="mask16_2054_14589" style="mask-type:luminance" maskUnits="userSpaceOnUse" x="963" y="0" width="278" height="280">
<path d="M963.422 0.544922H1240.27V279.001H963.422V0.544922Z" fill="white"/>
</mask>
<g mask="url(#mask16_2054_14589)">
<path d="M966.004 0.948145L1234.43 279.058H1239.66L970.762 0.544922L966.004 0.948145Z" fill="url(#paint35_linear_2054_14589)" fill-opacity="0.5"/>
</g>
<mask id="mask17_2054_14589" style="mask-type:luminance" maskUnits="userSpaceOnUse" x="1028" y="0" width="548" height="279">
<path d="M1028.56 0H1575.75V279H1028.56V0Z" fill="white"/>
</mask>
<g mask="url(#mask17_2054_14589)">
<path d="M1028.83 1.12135L1566.81 279.056H1572.56L1033.1 0.368164L1028.83 1.12135Z" fill="url(#paint36_linear_2054_14589)" fill-opacity="0.5"/>
</g>
<mask id="mask18_2054_14589" style="mask-type:luminance" maskUnits="userSpaceOnUse" x="1090" y="0" width="750" height="259">
<path d="M1090.45 0H1839.58V258.607H1090.45V0Z" fill="white"/>
</mask>
<g mask="url(#mask18_2054_14589)">
<path d="M1091.65 1.2451L1839.46 258.555V256.272L1095.46 0.263672L1091.65 1.2451Z" fill="url(#paint37_linear_2054_14589)" fill-opacity="0.5"/>
</g>
<mask id="mask19_2054_14589" style="mask-type:luminance" maskUnits="userSpaceOnUse" x="1152" y="0" width="688" height="179">
<path d="M1152.33 0H1839.57V178.753H1152.33V0Z" fill="white"/>
</mask>
<g mask="url(#mask19_2054_14589)">
<path d="M1154.52 1.316L1839.46 178.015V176.03L1157.75 0.174805L1154.52 1.316Z" fill="url(#paint38_linear_2054_14589)" fill-opacity="0.5"/>
</g>
<mask id="mask20_2054_14589" style="mask-type:luminance" maskUnits="userSpaceOnUse" x="1214" y="0" width="626" height="131">
<path d="M1214.22 0H1839.57V130.062H1214.22V0Z" fill="white"/>
</mask>
<g mask="url(#mask20_2054_14589)">
<path d="M1217.29 1.36978L1839.46 129.724V127.917L1220.17 0.12207L1217.29 1.36978Z" fill="url(#paint39_linear_2054_14589)" fill-opacity="0.5"/>
</g>
<mask id="mask21_2054_14589" style="mask-type:luminance" maskUnits="userSpaceOnUse" x="1279" y="0" width="561" height="98">
<path d="M1279.36 0H1839.57V97.9262H1279.36V0Z" fill="white"/>
</mask>
<g mask="url(#mask21_2054_14589)">
<path d="M1280.06 1.4035L1839.46 97.5646V95.8262L1282.58 0.102539L1280.06 1.4035Z" fill="url(#paint40_linear_2054_14589)" fill-opacity="0.5"/>
</g>
<mask id="mask22_2054_14589" style="mask-type:luminance" maskUnits="userSpaceOnUse" x="1341" y="0" width="499" height="76">
<path d="M1341.24 0H1839.57V75.5283H1341.24V0Z" fill="white"/>
</mask>
<g mask="url(#mask22_2054_14589)">
<path d="M1342.82 1.41878L1839.46 74.5848V72.9186L1344.98 0.0683594L1342.82 1.41878Z" fill="url(#paint41_linear_2054_14589)" fill-opacity="0.5"/>
</g>
<mask id="mask23_2054_14589" style="mask-type:luminance" maskUnits="userSpaceOnUse" x="1403" y="0" width="437" height="58">
<path d="M1403.13 0H1839.57V57.9995H1403.13V0Z" fill="white"/>
</mask>
<g mask="url(#mask23_2054_14589)">
<path d="M1405.52 1.43729L1839.46 57.3636V55.7317L1407.45 0.0488281L1405.52 1.43729Z" fill="url(#paint42_linear_2054_14589)" fill-opacity="0.5"/>
</g>
<mask id="mask24_2054_14589" style="mask-type:luminance" maskUnits="userSpaceOnUse" x="1465" y="0" width="375" height="45">
<path d="M1465.01 0H1839.57V44.366H1465.01V0Z" fill="white"/>
</mask>
<g mask="url(#mask24_2054_14589)">
<path d="M1468.16 1.43729L1839.45 43.9887V42.372L1469.98 0.0488281L1468.16 1.43729Z" fill="url(#paint43_linear_2054_14589)" fill-opacity="0.5"/>
</g>
<mask id="mask25_2054_14589" style="mask-type:luminance" maskUnits="userSpaceOnUse" x="1530" y="0" width="310" height="34">
<path d="M1530.15 0H1839.58V33.6539H1530.15V0Z" fill="white"/>
</mask>
<g mask="url(#mask25_2054_14589)">
<path d="M1530.86 1.45687L1839.46 33.2811V31.6834L1532.45 0.0341797L1530.86 1.45687Z" fill="url(#paint44_linear_2054_14589)" fill-opacity="0.5"/>
</g>
<mask id="mask26_2054_14589" style="mask-type:luminance" maskUnits="userSpaceOnUse" x="1592" y="0" width="248" height="25">
<path d="M1592.03 0H1839.57V24.8895H1592.03V0Z" fill="white"/>
</mask>
<g mask="url(#mask26_2054_14589)">
<path d="M1593.51 1.45687L1839.46 24.5053V22.9418L1594.98 0.0341797L1593.51 1.45687Z" fill="url(#paint45_linear_2054_14589)" fill-opacity="0.5"/>
</g>
<mask id="mask27_2054_14589" style="mask-type:luminance" maskUnits="userSpaceOnUse" x="1653" y="0" width="187" height="19">
<path d="M1653.92 0H1839.58V18.0728H1653.92V0Z" fill="white"/>
</mask>
<g mask="url(#mask27_2054_14589)">
<path d="M1656.16 1.47209L1839.46 17.2206V15.6572L1657.51 0.0341797L1656.16 1.47209Z" fill="url(#paint46_linear_2054_14589)" fill-opacity="0.5"/>
</g>
<mask id="mask28_2054_14589" style="mask-type:luminance" maskUnits="userSpaceOnUse" x="1715" y="0" width="125" height="12">
<path d="M1715.81 0H1839.58V11.256H1715.81V0Z" fill="white"/>
</mask>
<g mask="url(#mask28_2054_14589)">
<path d="M1718.81 1.47255L1839.46 11.0396V9.49517L1720.09 0.015625L1718.81 1.47255Z" fill="url(#paint47_linear_2054_14589)" fill-opacity="0.5"/>
</g>
<mask id="mask29_2054_14589" style="mask-type:luminance" maskUnits="userSpaceOnUse" x="1780" y="0" width="60" height="7">
<path d="M1780.95 0H1839.57V6.3869H1780.95V0Z" fill="white"/>
</mask>
<g mask="url(#mask29_2054_14589)">
<path d="M1781.39 1.47255L1839.46 5.74063V4.21143L1782.62 0.015625L1781.39 1.47255Z" fill="url(#paint48_linear_2054_14589)" fill-opacity="0.5"/>
</g>
<path d="M905.191 9.02246H1839.58V10.4105H905.191V9.02246Z" fill="url(#paint49_linear_2054_14589)" fill-opacity="0.5"/>
<path d="M905.191 5.55176H1839.58V7.63385H905.191V5.55176Z" fill="url(#paint50_linear_2054_14589)" fill-opacity="0.5"/>
<path d="M905.191 2.77637H1839.58V4.16443H905.191V2.77637Z" fill="url(#paint51_linear_2054_14589)" fill-opacity="0.5"/>
<mask id="mask30_2054_14589" style="mask-type:luminance" maskUnits="userSpaceOnUse" x="904" y="0" width="936" height="2">
<path d="M904.793 0H1839.57V1.51779H904.793V0Z" fill="white"/>
</mask>
<g mask="url(#mask30_2054_14589)">
<path d="M905.826 0H1839.46V1.49116H905.826V0Z" fill="url(#paint52_linear_2054_14589)" fill-opacity="0.5"/>
</g>
<path d="M905.191 12.4922H1839.58V13.8802H905.191V12.4922Z" fill="url(#paint53_linear_2054_14589)" fill-opacity="0.5"/>
<path d="M905.191 15.9629H1839.58V18.045H905.191V15.9629Z" fill="url(#paint54_linear_2054_14589)" fill-opacity="0.5"/>
<path d="M905.191 20.127H1839.58V22.209H905.191V20.127Z" fill="url(#paint55_linear_2054_14589)" fill-opacity="0.5"/>
<path d="M905.191 25.6787H1839.58V27.0668H905.191V25.6787Z" fill="url(#paint56_linear_2054_14589)" fill-opacity="0.5"/>
<path d="M905.191 30.5371H1839.58V31.9252H905.191V30.5371Z" fill="url(#paint57_linear_2054_14589)" fill-opacity="0.5"/>
<path d="M905.191 37.4775H1839.58V38.8656H905.191V37.4775Z" fill="url(#paint58_linear_2054_14589)" fill-opacity="0.5"/>
<path d="M905.191 43.7236H1839.58V45.1117H905.191V43.7236Z" fill="url(#paint59_linear_2054_14589)" fill-opacity="0.5"/>
<path d="M905.191 52.0518H1839.58V53.4398H905.191V52.0518Z" fill="url(#paint60_linear_2054_14589)" fill-opacity="0.5"/>
<path d="M905.191 61.0742H1839.58V63.1563H905.191V61.0742Z" fill="url(#paint61_linear_2054_14589)" fill-opacity="0.5"/>
<path d="M905.191 72.1787H1839.58V73.5668H905.191V72.1787Z" fill="url(#paint62_linear_2054_14589)" fill-opacity="0.5"/>
<path d="M905.191 84.6719H1839.58V86.0599H905.191V84.6719Z" fill="url(#paint63_linear_2054_14589)" fill-opacity="0.5"/>
<path d="M905.191 99.9404H1839.58V101.328H905.191V99.9404Z" fill="url(#paint64_linear_2054_14589)" fill-opacity="0.5"/>
<path d="M905.191 119.373H1839.58V120.761H905.191V119.373Z" fill="url(#paint65_linear_2054_14589)" fill-opacity="0.5"/>
<path d="M905.191 142.97H1839.58V144.358H905.191V142.97Z" fill="url(#paint66_linear_2054_14589)" fill-opacity="0.5"/>
<path d="M904.148 174.896H1839.58V176.284H904.148V174.896Z" fill="url(#paint67_linear_2054_14589)" fill-opacity="0.5"/>
<path d="M904.148 217.231H1839.58V218.62H904.148V217.231Z" fill="url(#paint68_linear_2054_14589)" fill-opacity="0.5"/>
<defs>
<linearGradient id="paint0_linear_2054_14589" x1="-3.09519" y1="0.015625" x2="-3.09519" y2="6.3721" gradientUnits="userSpaceOnUse">
<stop stop-color="#8FBDF5"/>
<stop offset="0.848958" stop-color="#BBD8F6"/>
</linearGradient>
<linearGradient id="paint1_linear_2054_14589" x1="28.1969" y1="0.015625" x2="28.1969" y2="11.7091" gradientUnits="userSpaceOnUse">
<stop stop-color="#8FBDF5"/>
<stop offset="0.848958" stop-color="#BBD8F6"/>
</linearGradient>
<linearGradient id="paint2_linear_2054_14589" x1="59.5208" y1="0.0341797" x2="59.5208" y2="17.9396" gradientUnits="userSpaceOnUse">
<stop stop-color="#8FBDF5"/>
<stop offset="0.848958" stop-color="#BBD8F6"/>
</linearGradient>
<linearGradient id="paint3_linear_2054_14589" x1="90.8447" y1="0.0341797" x2="90.8447" y2="25.2927" gradientUnits="userSpaceOnUse">
<stop stop-color="#8FBDF5"/>
<stop offset="0.848958" stop-color="#BBD8F6"/>
</linearGradient>
<linearGradient id="paint4_linear_2054_14589" x1="122.169" y1="0.0341797" x2="122.169" y2="34.1256" gradientUnits="userSpaceOnUse">
<stop stop-color="#8FBDF5"/>
<stop offset="0.848958" stop-color="#BBD8F6"/>
</linearGradient>
<linearGradient id="paint5_linear_2054_14589" x1="153.518" y1="0.0488281" x2="153.518" y2="44.9017" gradientUnits="userSpaceOnUse">
<stop stop-color="#8FBDF5"/>
<stop offset="0.848958" stop-color="#BBD8F6"/>
</linearGradient>
<linearGradient id="paint6_linear_2054_14589" x1="184.842" y1="0.0488281" x2="184.842" y2="58.4021" gradientUnits="userSpaceOnUse">
<stop stop-color="#8FBDF5"/>
<stop offset="0.848958" stop-color="#BBD8F6"/>
</linearGradient>
<linearGradient id="paint7_linear_2054_14589" x1="216.191" y1="0.0683594" x2="216.191" y2="75.726" gradientUnits="userSpaceOnUse">
<stop stop-color="#8FBDF5"/>
<stop offset="0.848958" stop-color="#BBD8F6"/>
</linearGradient>
<linearGradient id="paint8_linear_2054_14589" x1="247.579" y1="0.102539" x2="247.579" y2="98.8466" gradientUnits="userSpaceOnUse">
<stop stop-color="#8FBDF5"/>
<stop offset="0.848958" stop-color="#BBD8F6"/>
</linearGradient>
<linearGradient id="paint9_linear_2054_14589" x1="278.96" y1="0.12207" x2="278.96" y2="131.215" gradientUnits="userSpaceOnUse">
<stop stop-color="#8FBDF5"/>
<stop offset="0.848958" stop-color="#BBD8F6"/>
</linearGradient>
<linearGradient id="paint10_linear_2054_14589" x1="310.341" y1="0.174805" x2="310.341" y2="179.735" gradientUnits="userSpaceOnUse">
<stop stop-color="#8FBDF5"/>
<stop offset="0.848958" stop-color="#BBD8F6"/>
</linearGradient>
<linearGradient id="paint11_linear_2054_14589" x1="341.779" y1="0.263672" x2="341.779" y2="260.59" gradientUnits="userSpaceOnUse">
<stop stop-color="#8FBDF5"/>
<stop offset="0.848958" stop-color="#BBD8F6"/>
</linearGradient>
<linearGradient id="paint12_linear_2054_14589" x1="509.493" y1="0.368164" x2="509.493" y2="279.056" gradientUnits="userSpaceOnUse">
<stop stop-color="#8FBDF5"/>
<stop offset="0.848958" stop-color="#BBD8F6"/>
</linearGradient>
<linearGradient id="paint13_linear_2054_14589" x1="707.346" y1="0.544922" x2="707.346" y2="279.058" gradientUnits="userSpaceOnUse">
<stop stop-color="#8FBDF5"/>
<stop offset="0.848958" stop-color="#BBD8F6"/>
</linearGradient>
<linearGradient id="paint14_linear_2054_14589" x1="905.098" y1="0.753906" x2="905.098" y2="279.058" gradientUnits="userSpaceOnUse">
<stop stop-color="#8FBDF5"/>
<stop offset="0.848958" stop-color="#BBD8F6"/>
</linearGradient>
<linearGradient id="paint15_linear_2054_14589" x1="434.346" y1="9.02238" x2="434.346" y2="10.4104" gradientUnits="userSpaceOnUse">
<stop stop-color="#8FBDF5"/>
<stop offset="0.848958" stop-color="#BBD8F6"/>
</linearGradient>
<linearGradient id="paint16_linear_2054_14589" x1="434.346" y1="5.55176" x2="434.346" y2="7.63385" gradientUnits="userSpaceOnUse">
<stop stop-color="#8FBDF5"/>
<stop offset="0.848958" stop-color="#BBD8F6"/>
</linearGradient>
<linearGradient id="paint17_linear_2054_14589" x1="434.346" y1="2.77637" x2="434.346" y2="4.16443" gradientUnits="userSpaceOnUse">
<stop stop-color="#8FBDF5"/>
<stop offset="0.848958" stop-color="#BBD8F6"/>
</linearGradient>
<linearGradient id="paint18_linear_2054_14589" x1="434.72" y1="0" x2="434.72" y2="1.49116" gradientUnits="userSpaceOnUse">
<stop stop-color="#8FBDF5"/>
<stop offset="0.848958" stop-color="#BBD8F6"/>
</linearGradient>
<linearGradient id="paint19_linear_2054_14589" x1="434.346" y1="12.4922" x2="434.346" y2="13.8802" gradientUnits="userSpaceOnUse">
<stop stop-color="#8FBDF5"/>
<stop offset="0.848958" stop-color="#BBD8F6"/>
</linearGradient>
<linearGradient id="paint20_linear_2054_14589" x1="434.346" y1="15.9627" x2="434.346" y2="18.0448" gradientUnits="userSpaceOnUse">
<stop stop-color="#8FBDF5"/>
<stop offset="0.848958" stop-color="#BBD8F6"/>
</linearGradient>
<linearGradient id="paint21_linear_2054_14589" x1="434.346" y1="20.1269" x2="434.346" y2="22.209" gradientUnits="userSpaceOnUse">
<stop stop-color="#8FBDF5"/>
<stop offset="0.848958" stop-color="#BBD8F6"/>
</linearGradient>
<linearGradient id="paint22_linear_2054_14589" x1="434.346" y1="25.6787" x2="434.346" y2="27.0668" gradientUnits="userSpaceOnUse">
<stop stop-color="#8FBDF5"/>
<stop offset="0.848958" stop-color="#BBD8F6"/>
</linearGradient>
<linearGradient id="paint23_linear_2054_14589" x1="434.346" y1="30.5373" x2="434.346" y2="31.9254" gradientUnits="userSpaceOnUse">
<stop stop-color="#8FBDF5"/>
<stop offset="0.848958" stop-color="#BBD8F6"/>
</linearGradient>
<linearGradient id="paint24_linear_2054_14589" x1="434.346" y1="37.4776" x2="434.346" y2="38.8657" gradientUnits="userSpaceOnUse">
<stop stop-color="#8FBDF5"/>
<stop offset="0.848958" stop-color="#BBD8F6"/>
</linearGradient>
<linearGradient id="paint25_linear_2054_14589" x1="434.346" y1="43.7236" x2="434.346" y2="45.1117" gradientUnits="userSpaceOnUse">
<stop stop-color="#8FBDF5"/>
<stop offset="0.848958" stop-color="#BBD8F6"/>
</linearGradient>
<linearGradient id="paint26_linear_2054_14589" x1="434.346" y1="52.0518" x2="434.346" y2="53.4398" gradientUnits="userSpaceOnUse">
<stop stop-color="#8FBDF5"/>
<stop offset="0.848958" stop-color="#BBD8F6"/>
</linearGradient>
<linearGradient id="paint27_linear_2054_14589" x1="434.346" y1="61.0742" x2="434.346" y2="63.1563" gradientUnits="userSpaceOnUse">
<stop stop-color="#8FBDF5"/>
<stop offset="0.848958" stop-color="#BBD8F6"/>
</linearGradient>
<linearGradient id="paint28_linear_2054_14589" x1="434.346" y1="72.1787" x2="434.346" y2="73.5668" gradientUnits="userSpaceOnUse">
<stop stop-color="#8FBDF5"/>
<stop offset="0.848958" stop-color="#BBD8F6"/>
</linearGradient>
<linearGradient id="paint29_linear_2054_14589" x1="434.346" y1="84.6716" x2="434.346" y2="86.0597" gradientUnits="userSpaceOnUse">
<stop stop-color="#8FBDF5"/>
<stop offset="0.848958" stop-color="#BBD8F6"/>
</linearGradient>
<linearGradient id="paint30_linear_2054_14589" x1="434.346" y1="99.9403" x2="434.346" y2="101.328" gradientUnits="userSpaceOnUse">
<stop stop-color="#8FBDF5"/>
<stop offset="0.848958" stop-color="#BBD8F6"/>
</linearGradient>
<linearGradient id="paint31_linear_2054_14589" x1="434.346" y1="119.373" x2="434.346" y2="120.761" gradientUnits="userSpaceOnUse">
<stop stop-color="#8FBDF5"/>
<stop offset="0.848958" stop-color="#BBD8F6"/>
</linearGradient>
<linearGradient id="paint32_linear_2054_14589" x1="434.346" y1="142.97" x2="434.346" y2="144.358" gradientUnits="userSpaceOnUse">
<stop stop-color="#8FBDF5"/>
<stop offset="0.848958" stop-color="#BBD8F6"/>
</linearGradient>
<linearGradient id="paint33_linear_2054_14589" x1="433.824" y1="174.896" x2="433.824" y2="176.284" gradientUnits="userSpaceOnUse">
<stop stop-color="#8FBDF5"/>
<stop offset="0.848958" stop-color="#BBD8F6"/>
</linearGradient>
<linearGradient id="paint34_linear_2054_14589" x1="433.824" y1="217.231" x2="433.824" y2="218.619" gradientUnits="userSpaceOnUse">
<stop stop-color="#8FBDF5"/>
<stop offset="0.848958" stop-color="#BBD8F6"/>
</linearGradient>
<linearGradient id="paint35_linear_2054_14589" x1="1102.83" y1="0.544922" x2="1102.83" y2="279.058" gradientUnits="userSpaceOnUse">
<stop stop-color="#8FBDF5"/>
<stop offset="0.848958" stop-color="#BBD8F6"/>
</linearGradient>
<linearGradient id="paint36_linear_2054_14589" x1="1300.69" y1="0.368164" x2="1300.69" y2="279.056" gradientUnits="userSpaceOnUse">
<stop stop-color="#8FBDF5"/>
<stop offset="0.848958" stop-color="#BBD8F6"/>
</linearGradient>
<linearGradient id="paint37_linear_2054_14589" x1="1465.55" y1="0.263672" x2="1465.55" y2="258.555" gradientUnits="userSpaceOnUse">
<stop stop-color="#8FBDF5"/>
<stop offset="0.848958" stop-color="#BBD8F6"/>
</linearGradient>
<linearGradient id="paint38_linear_2054_14589" x1="1496.99" y1="0.174805" x2="1496.99" y2="178.015" gradientUnits="userSpaceOnUse">
<stop stop-color="#8FBDF5"/>
<stop offset="0.848958" stop-color="#BBD8F6"/>
</linearGradient>
<linearGradient id="paint39_linear_2054_14589" x1="1528.38" y1="0.12207" x2="1528.38" y2="129.724" gradientUnits="userSpaceOnUse">
<stop stop-color="#8FBDF5"/>
<stop offset="0.848958" stop-color="#BBD8F6"/>
</linearGradient>
<linearGradient id="paint40_linear_2054_14589" x1="1559.76" y1="0.102539" x2="1559.76" y2="97.5646" gradientUnits="userSpaceOnUse">
<stop stop-color="#8FBDF5"/>
<stop offset="0.848958" stop-color="#BBD8F6"/>
</linearGradient>
<linearGradient id="paint41_linear_2054_14589" x1="1591.14" y1="0.0683594" x2="1591.14" y2="74.5848" gradientUnits="userSpaceOnUse">
<stop stop-color="#8FBDF5"/>
<stop offset="0.848958" stop-color="#BBD8F6"/>
</linearGradient>
<linearGradient id="paint42_linear_2054_14589" x1="1622.49" y1="0.0488281" x2="1622.49" y2="57.3636" gradientUnits="userSpaceOnUse">
<stop stop-color="#8FBDF5"/>
<stop offset="0.848958" stop-color="#BBD8F6"/>
</linearGradient>
<linearGradient id="paint43_linear_2054_14589" x1="1653.81" y1="0.0488281" x2="1653.81" y2="43.9887" gradientUnits="userSpaceOnUse">
<stop stop-color="#8FBDF5"/>
<stop offset="0.848958" stop-color="#BBD8F6"/>
</linearGradient>
<linearGradient id="paint44_linear_2054_14589" x1="1685.16" y1="0.0341797" x2="1685.16" y2="33.2811" gradientUnits="userSpaceOnUse">
<stop stop-color="#8FBDF5"/>
<stop offset="0.848958" stop-color="#BBD8F6"/>
</linearGradient>
<linearGradient id="paint45_linear_2054_14589" x1="1716.48" y1="0.0341797" x2="1716.48" y2="24.5053" gradientUnits="userSpaceOnUse">
<stop stop-color="#8FBDF5"/>
<stop offset="0.848958" stop-color="#BBD8F6"/>
</linearGradient>
<linearGradient id="paint46_linear_2054_14589" x1="1747.81" y1="0.0341797" x2="1747.81" y2="17.2206" gradientUnits="userSpaceOnUse">
<stop stop-color="#8FBDF5"/>
<stop offset="0.848958" stop-color="#BBD8F6"/>
</linearGradient>
<linearGradient id="paint47_linear_2054_14589" x1="1779.13" y1="0.015625" x2="1779.13" y2="11.0396" gradientUnits="userSpaceOnUse">
<stop stop-color="#8FBDF5"/>
<stop offset="0.848958" stop-color="#BBD8F6"/>
</linearGradient>
<linearGradient id="paint48_linear_2054_14589" x1="1810.42" y1="0.015625" x2="1810.42" y2="5.74063" gradientUnits="userSpaceOnUse">
<stop stop-color="#8FBDF5"/>
<stop offset="0.848958" stop-color="#BBD8F6"/>
</linearGradient>
<linearGradient id="paint49_linear_2054_14589" x1="1372.38" y1="9.02246" x2="1372.38" y2="10.4105" gradientUnits="userSpaceOnUse">
<stop stop-color="#8FBDF5"/>
<stop offset="0.848958" stop-color="#BBD8F6"/>
</linearGradient>
<linearGradient id="paint50_linear_2054_14589" x1="1372.38" y1="5.55176" x2="1372.38" y2="7.63385" gradientUnits="userSpaceOnUse">
<stop stop-color="#8FBDF5"/>
<stop offset="0.848958" stop-color="#BBD8F6"/>
</linearGradient>
<linearGradient id="paint51_linear_2054_14589" x1="1372.38" y1="2.77637" x2="1372.38" y2="4.16443" gradientUnits="userSpaceOnUse">
<stop stop-color="#8FBDF5"/>
<stop offset="0.848958" stop-color="#BBD8F6"/>
</linearGradient>
<linearGradient id="paint52_linear_2054_14589" x1="1372.64" y1="0" x2="1372.64" y2="1.49116" gradientUnits="userSpaceOnUse">
<stop stop-color="#8FBDF5"/>
<stop offset="0.848958" stop-color="#BBD8F6"/>
</linearGradient>
<linearGradient id="paint53_linear_2054_14589" x1="1372.38" y1="12.4922" x2="1372.38" y2="13.8802" gradientUnits="userSpaceOnUse">
<stop stop-color="#8FBDF5"/>
<stop offset="0.848958" stop-color="#BBD8F6"/>
</linearGradient>
<linearGradient id="paint54_linear_2054_14589" x1="1372.38" y1="15.9629" x2="1372.38" y2="18.045" gradientUnits="userSpaceOnUse">
<stop stop-color="#8FBDF5"/>
<stop offset="0.848958" stop-color="#BBD8F6"/>
</linearGradient>
<linearGradient id="paint55_linear_2054_14589" x1="1372.38" y1="20.127" x2="1372.38" y2="22.209" gradientUnits="userSpaceOnUse">
<stop stop-color="#8FBDF5"/>
<stop offset="0.848958" stop-color="#BBD8F6"/>
</linearGradient>
<linearGradient id="paint56_linear_2054_14589" x1="1372.38" y1="25.6787" x2="1372.38" y2="27.0668" gradientUnits="userSpaceOnUse">
<stop stop-color="#8FBDF5"/>
<stop offset="0.848958" stop-color="#BBD8F6"/>
</linearGradient>
<linearGradient id="paint57_linear_2054_14589" x1="1372.38" y1="30.5371" x2="1372.38" y2="31.9252" gradientUnits="userSpaceOnUse">
<stop stop-color="#8FBDF5"/>
<stop offset="0.848958" stop-color="#BBD8F6"/>
</linearGradient>
<linearGradient id="paint58_linear_2054_14589" x1="1372.38" y1="37.4775" x2="1372.38" y2="38.8656" gradientUnits="userSpaceOnUse">
<stop stop-color="#8FBDF5"/>
<stop offset="0.848958" stop-color="#BBD8F6"/>
</linearGradient>
<linearGradient id="paint59_linear_2054_14589" x1="1372.38" y1="43.7236" x2="1372.38" y2="45.1117" gradientUnits="userSpaceOnUse">
<stop stop-color="#8FBDF5"/>
<stop offset="0.848958" stop-color="#BBD8F6"/>
</linearGradient>
<linearGradient id="paint60_linear_2054_14589" x1="1372.38" y1="52.0518" x2="1372.38" y2="53.4398" gradientUnits="userSpaceOnUse">
<stop stop-color="#8FBDF5"/>
<stop offset="0.848958" stop-color="#BBD8F6"/>
</linearGradient>
<linearGradient id="paint61_linear_2054_14589" x1="1372.38" y1="61.0742" x2="1372.38" y2="63.1563" gradientUnits="userSpaceOnUse">
<stop stop-color="#8FBDF5"/>
<stop offset="0.848958" stop-color="#BBD8F6"/>
</linearGradient>
<linearGradient id="paint62_linear_2054_14589" x1="1372.38" y1="72.1787" x2="1372.38" y2="73.5668" gradientUnits="userSpaceOnUse">
<stop stop-color="#8FBDF5"/>
<stop offset="0.848958" stop-color="#BBD8F6"/>
</linearGradient>
<linearGradient id="paint63_linear_2054_14589" x1="1372.38" y1="84.6719" x2="1372.38" y2="86.0599" gradientUnits="userSpaceOnUse">
<stop stop-color="#8FBDF5"/>
<stop offset="0.848958" stop-color="#BBD8F6"/>
</linearGradient>
<linearGradient id="paint64_linear_2054_14589" x1="1372.38" y1="99.9404" x2="1372.38" y2="101.328" gradientUnits="userSpaceOnUse">
<stop stop-color="#8FBDF5"/>
<stop offset="0.848958" stop-color="#BBD8F6"/>
</linearGradient>
<linearGradient id="paint65_linear_2054_14589" x1="1372.38" y1="119.373" x2="1372.38" y2="120.761" gradientUnits="userSpaceOnUse">
<stop stop-color="#8FBDF5"/>
<stop offset="0.848958" stop-color="#BBD8F6"/>
</linearGradient>
<linearGradient id="paint66_linear_2054_14589" x1="1372.38" y1="142.97" x2="1372.38" y2="144.358" gradientUnits="userSpaceOnUse">
<stop stop-color="#8FBDF5"/>
<stop offset="0.848958" stop-color="#BBD8F6"/>
</linearGradient>
<linearGradient id="paint67_linear_2054_14589" x1="1371.86" y1="174.896" x2="1371.86" y2="176.284" gradientUnits="userSpaceOnUse">
<stop stop-color="#8FBDF5"/>
<stop offset="0.848958" stop-color="#BBD8F6"/>
</linearGradient>
<linearGradient id="paint68_linear_2054_14589" x1="1371.86" y1="217.231" x2="1371.86" y2="218.62" gradientUnits="userSpaceOnUse">
<stop stop-color="#8FBDF5"/>
<stop offset="0.848958" stop-color="#BBD8F6"/>
</linearGradient>
</defs>
</svg>
