<svg width="1830" height="279" viewBox="0 0 1830 279" fill="none" xmlns="http://www.w3.org/2000/svg">
<path d="M252.193 28.0048C255.744 25.152 260.163 23.597 264.718 23.597H321.469C324.156 23.597 326.815 23.0558 329.288 22.0056L377.355 1.59141C379.827 0.541239 382.486 0 385.173 0H1620.74C1627.72 0 1633.39 5.66285 1633.39 12.6483C1633.39 16.298 1631.81 19.7697 1629.06 22.1716L1620.24 29.8847C1611.93 37.1473 1611.07 49.7676 1618.32 58.0859L1631.82 73.5672L1822.47 244.093C1836.16 256.333 1827.5 279 1809.14 279H209.485C206.464 279 203.482 278.315 200.763 276.998L169.646 261.917C166.927 260.599 163.945 259.914 160.924 259.914H20.3324C1.44704 259.914 -6.91618 236.149 7.80705 224.322L252.193 28.0048Z" fill="white" fill-opacity="0.05"/>
<path d="M1631.44 73.8957L1631.46 73.9191L1631.49 73.9398L1822.14 244.466C1835.48 256.4 1827.04 278.5 1809.14 278.5H209.485C206.539 278.5 203.632 277.833 200.981 276.548L169.865 261.467C167.078 260.116 164.021 259.414 160.924 259.414H20.3324C1.91917 259.414 -6.23496 236.243 8.12018 224.712L252.506 28.3946C255.969 25.6132 260.277 24.097 264.718 24.097H321.469C324.223 24.097 326.948 23.5422 329.483 22.4658L377.55 2.05163C379.961 1.02771 382.553 0.5 385.173 0.5H1620.74C1627.45 0.5 1632.89 5.93899 1632.89 12.6483C1632.89 16.1537 1631.37 19.4882 1628.73 21.7951L1619.91 29.5083C1611.39 36.9524 1610.51 49.8882 1617.95 58.4145L1631.44 73.8957Z" stroke="url(#paint0_linear_2054_14586)" stroke-opacity="0.5"/>
<defs>
<linearGradient id="paint0_linear_2054_14586" x1="912.5" y1="0" x2="912.5" y2="279" gradientUnits="userSpaceOnUse">
<stop stop-color="#8FBDF5"/>
<stop offset="0.848958" stop-color="#BBD8F6"/>
</linearGradient>
</defs>
</svg>
