<svg width="64" height="29" viewBox="0 0 64 29" fill="none" xmlns="http://www.w3.org/2000/svg">
<rect x="0.625" y="0.352539" width="63" height="28" rx="14" fill="#F5F1EF"/>
<path d="M15.1047 19.5924C12.2269 19.5924 10.6046 18.1394 10.52 15.9951H12.4808C12.6219 17.3494 13.5106 18.0265 15.1188 18.0265C16.2615 18.0265 17.2066 17.5328 17.2066 16.4888C17.2066 15.3603 16.1627 15.1064 14.4981 14.7255C12.5373 14.2882 10.9009 13.7662 10.9009 11.6643C10.9009 9.67524 12.5373 8.67365 14.7803 8.67365C17.2207 8.67365 18.6314 9.84452 18.8289 11.7772H16.9245C16.7693 10.7474 15.9934 10.169 14.752 10.169C13.5812 10.169 12.8053 10.6627 12.8053 11.495C12.8053 12.4684 13.821 12.7223 15.4433 13.0609C17.39 13.4841 19.1816 14.0625 19.1816 16.3337C19.1816 18.4215 17.4323 19.5924 15.1047 19.5924ZM25.44 19.3525C25.313 19.1833 25.2143 18.887 25.186 18.3792H25.1578C24.6641 19.0422 23.987 19.5359 22.7879 19.5359C21.3208 19.5359 20.2204 18.7742 20.2204 17.307C20.2204 15.6001 21.5183 15.191 23.3098 14.9794C24.5512 14.8242 25.1719 14.6267 25.1719 13.9496C25.1719 13.3007 24.7205 12.8634 23.8177 12.8634C22.8161 12.8634 22.3224 13.3289 22.28 14.0766H20.5872C20.6436 12.7929 21.6593 11.622 23.8036 11.622C24.6641 11.622 25.3271 11.7489 25.8209 12.0593C26.5262 12.4825 26.893 13.202 26.893 14.2035V18.1676C26.893 18.7883 27.0058 19.1127 27.1751 19.2256V19.3525H25.44ZM23.3098 18.3086C24.5371 18.3086 25.2143 17.4622 25.2143 16.6158V15.5014C24.8616 15.7271 24.2973 15.8823 23.7471 15.9951C22.6468 16.2067 22.012 16.4324 22.012 17.2647C22.012 18.0688 22.6186 18.3086 23.3098 18.3086ZM28.0837 13.0609V11.8195H29.2404V10.9872C29.2404 10.2254 29.4238 9.70345 29.8188 9.35078C30.2561 8.9699 30.9333 8.81472 31.7938 8.82883C32.0336 8.82883 32.3157 8.84294 32.5979 8.87115V10.2113C31.4129 10.1549 31.032 10.2818 31.032 11.1V11.8195H32.5838V13.0609H31.032V19.3525H29.2404V13.0609H28.0837ZM37.1439 19.5782C34.7457 19.5782 33.3068 17.829 33.3068 15.6001C33.3068 13.3571 34.8163 11.622 37.0452 11.622C38.1455 11.622 39.006 12.0029 39.6408 12.68C40.3744 13.4559 40.7271 14.6409 40.7129 16.0374H35.0843C35.2113 17.3353 35.9025 18.2099 37.158 18.2099C38.0185 18.2099 38.5828 17.8431 38.8226 17.2224H40.5719C40.2051 18.5767 38.9919 19.5782 37.1439 19.5782ZM37.0452 12.9198C35.8743 12.9198 35.2677 13.7239 35.1125 14.9089H38.8649C38.7944 13.6675 38.1314 12.9198 37.0452 12.9198ZM41.3781 13.0468V11.8195H42.5348V9.42132H44.2982V11.8195H45.8076V13.0468H44.2982V17.2647C44.2982 17.8149 44.5944 17.9701 45.1023 17.9701C45.2857 17.9701 45.5396 17.9419 45.6807 17.9136H45.7653V19.3102C45.469 19.3666 45.0599 19.4231 44.5803 19.4231C43.3671 19.4231 42.5348 18.9858 42.5348 17.6597V13.0468H41.3781ZM48.5 21.92C48.2743 21.92 47.3151 21.8777 47.1881 21.8353V20.3823H47.2868C47.3574 20.4247 47.8511 20.4529 48.0345 20.4529C48.6411 20.4529 48.9797 20.2272 49.1348 19.6206C49.1348 19.4795 49.2054 18.7742 49.0502 18.3651L46.4545 11.8195H48.359L49.6004 15.318C49.9248 16.249 50.2352 17.6597 50.2352 17.6597H50.2634C50.2634 17.6597 50.602 16.2349 50.9123 15.318L52.1114 11.8195H53.9171L50.997 19.7757C50.3762 21.4404 49.7273 21.92 48.5 21.92Z" fill="#183C34"/>
</svg>
